<svg version="1" xmlns="http://www.w3.org/2000/svg" width="128" height="128" viewBox="0 0 128.000000 128.000000"><path d="M99.3 26.9l-5.1 4.8-7.5-.5c-8.8-.5-12.8.6-19.1 5.4-3.9 3-5.2 4.9-6.2 9.6-.1.5-.2 1-.3 1.3 0 .3-4.3-1.6-9.3-4.2-9.5-4.8-17.2-11-18.3-14.4-.8-2.3-2.8-2.5-4.5-.3-2 2.3-4 14.5-2.8 16.7.7 1.4.5 2.3-.7 3.7-2.2 2.4-1.6 4.8 2.8 12.1l3.4 5.6-2.9 1.1c-3.6 1.3-3.7 4.4-.3 7.8 2.8 2.8 8.3 5.4 11.5 5.4 1.1 0 2 .5 2 1.1 0 1.6-5.9 3.7-15.9 5.5-8.3 1.5-9.2 1.9-8.9 3.7.4 3 7.9 8.4 14.1 10.2 7.5 2.3 29 3.8 34.1 2.4 4.6-1.2 13.4-6.4 18.2-10.6 3.9-3.5 13.4-16.4 16.3-22 3.2-6.3 4.2-12.6 3.2-18.9-.8-5.4-.8-5.6 1.8-6.5 5.4-1.9 7.1-3.3 7.1-5.5 0-1.9-.7-2.3-5-2.9-3.6-.5-4.8-1-4.2-1.8 1.5-2 4.3-11.7 3.7-12.7-1-1.6-1.7-1.2-7.2 3.9zm-66.1 10c1.7 2.4 12.9 10.2 19.6 13.5 3.3 1.7 6.6 2.6 8.5 2.4 3-.3 3.2-.6 3.8-4.7.5-3.5 1.4-5.2 4.3-7.7 5.8-5 14.6-6.7 21.2-3.9 6.7 2.8 9.7 16.2 5.5 24.4-1 2-2.5 5.6-3.2 8-2.5 8.4-14.3 21.7-23.3 26.3-7 3.5-15.6 4.5-26.8 2.9-7.2-1-14.8-3.6-14.8-5.1 0-.4 2-1 4.5-1.3 8.1-1.2 11.3-3.1 13.6-8.4 1.8-4.3 1.9-4.8.4-5.9-.9-.7-3.5-1.5-5.9-1.8-2.4-.4-5.1-1.3-6.1-2-1.6-1.2-1.3-1.5 2.9-3.2 3.6-1.5 4.6-2.4 4.4-3.9-.2-1.1-1.3-2.2-2.8-2.5-1.5-.3-3.8-2.5-5.8-5.5-3.1-4.6-3.2-5-1.5-6.2 4.6-3.1 4.6-3.4 1.4-6.7-2.3-2.4-3.1-4.1-3.1-6.9 0-4.1 1.2-4.7 3.2-1.8z"/></svg>