<svg xmlns="http://www.w3.org/2000/svg" width="331" height="331"><path d="M164.255 12.232c30.28 10.787 58.307 27.796 81.948 49.566 22.675 21.132 41.915 47.019 51.072 76.93 6.206 19.233 4.929 40.017.827 59.543-4.098 18.189-12.101 35.528-23.755 50.119-12.351 16.109-5.846 9.11-25.308 23.642-16.129 11.019-35.594 16.827-55.031 17.685-24.481 1.082-48.954-6.809-68.929-20.826-10.771-7.403-20.48-16.254-29.387-25.794-1.525 1.501-3.19 2.847-4.902 4.13.425 3.201.884 6.398 1.326 9.601-3.343.192-6.68 1.01-9.488 2.893-8.666 5.492-14.683 14.017-20.834 22.02-7.627 9.902-14.482 20.892-25.111 27.906-6.441 3.979-15.973 2.297-19.918-4.391-4.126-6.562-1.746-15.032 2.698-20.789 10.861-15.963 30.253-22.786 42.394-37.492 3.158-3.951 5.546-8.531 6.73-13.461 3.101.198 6.202.4 9.304.602 2.627-2.665 5.268-5.316 7.885-7.99 2.918-.075 5.892.237 8.774-.326 3.008-2.653 5.405-5.914 8.121-8.852 2.975.833 4.666 3.624 6.819 5.617 13.307 12.12 28.525 22.682 45.869 28.068 22.179 7.105 46.889 4.848 67.694-5.491l26.194-21.52c10.498-12.773 16.407-29.037 17.21-45.504 1.481-21.788-3.561-43.463-10.743-63.901-10.152-26.973-29.562-49.179-50.658-68.282-13.186-11.721-26.775-23.003-40.801-33.703z"/><title>Layer 1</title><path d="M124.788 90.627c-29.041 22.909-34.128 65.453-11.218 94.494 19.41 24.605 52.953 31.965 80.401 19.695l71.965 89.582c5.584 6.866 15.562 7.814 22.34 2.123 6.778-5.691 7.809-15.783 2.224-22.649l-71.365-88.677c18.86-23.852 19.699-58.565.092-83.421-22.91-29.042-65.398-34.057-94.439-11.147zm16.803 21.301c17.518-13.819 42.515-10.868 56.334 6.65 13.819 17.518 10.868 42.515-6.65 56.334-17.518 13.819-42.515 10.868-56.334-6.65-13.818-17.518-10.867-42.516 6.65-56.334z"/></svg>
